PathFileType	4	(X/Y/Z)	OpenSim_Sub06_EMGBaseline_Magnet.trc
DataRate	CameraRate	NumFrames	NumMarkers	Units	OrigDataRate	OrigDataStartFrame	OrigNumFrames
100	100	16	8	m	100	1034	8270
Frame#	Time	torso_imu_offset_imu	pelvis_imu_offset_imu	tibia_r_imu_offset_imu	femur_r_imu_offset_imu	tibia_l_imu_offset_imu	femur_l_imu_offset_imu	toes_r_imu_offset_imu	toes_l_imu_offset_imu
				X1	Y1	Z1	X2	Y2	Z2	X3	Y3	Z3	X4	Y4	Z4	X5	Y5	Z5	X6	Y6	Z6	X7	Y7	Z7	X8		Y8	Z8	

1034	10.33000000	-0.93699338	-0.14745814	0.06097044	-0.54236635	0.16101223	-0.72670823	-0.29093236	-0.74724117	-0.19536883	-0.69410525	-0.43090928	0.17140406	-0.72190364	0.35648936	0.01216351	-0.73897652	0.11560142	0.35093365	-0.62172202	-0.41170748	-0.37837496	-0.67251466	-0.06487500	-0.43945607
1035	10.34000000	-0.93237233	-0.14565964	0.05475841	-0.54419863	0.15658903	-0.72193673	-0.27238685	-0.74973053	-0.19013298	-0.70478951	-0.42501573	0.16838280	-0.71603967	0.36949292	0.01245917	-0.73079453	0.11815564	0.34615664	-0.63317543	-0.43052115	-0.35714635	-0.67104340	-0.05125276	-0.44722469
1036	10.35000000	-0.93679141	-0.14634289	0.05261254	-0.54405141	0.14766268	-0.71709169	-0.26120469	-0.75999457	-0.18795709	-0.71048037	-0.41858433	0.15659263	-0.71381495	0.37661012	0.02492232	-0.73290728	0.11476604	0.35387234	-0.63746391	-0.44278499	-0.33134845	-0.68015533	-0.05516322	-0.43971156
1037	10.36000000	-0.93202977	-0.14735194	0.05037716	-0.54863846	0.13973183	-0.71811521	-0.23744095	-0.76399691	-0.18759828	-0.71313956	-0.40774648	0.15504980	-0.70457443	0.39115099	0.04608201	-0.72841850	0.10445090	0.35736693	-0.64918332	-0.45976192	-0.29963160	-0.68117723	-0.06173363	-0.44002558
1038	10.37000000	-0.93285768	-0.13917403	0.04550198	-0.55408295	0.13786355	-0.72632651	-0.21943526	-0.76999047	-0.18504781	-0.71981868	-0.39547544	0.15613849	-0.69601238	0.39133832	0.05921957	-0.73243634	0.10221779	0.35507063	-0.65127547	-0.47585141	-0.26600177	-0.67884635	-0.06806306	-0.43838975
1039	10.38000000	-0.93498123	-0.14152002	0.04396880	-0.54976592	0.13382918	-0.72174705	-0.20440888	-0.77266964	-0.18288635	-0.72697527	-0.38307597	0.14838079	-0.69001204	0.40735865	0.08168511	-0.72847443	0.09622997	0.35562838	-0.66009589	-0.49349410	-0.22926339	-0.67894685	-0.06989037	-0.44469554
1040	10.39000000	-0.93449564	-0.13724302	0.04338812	-0.55472403	0.13404383	-0.72630100	-0.18480346	-0.78221770	-0.18007126	-0.73964558	-0.37041086	0.14096151	-0.68530109	0.41735800	0.10184836	-0.73427504	0.10357467	0.35797397	-0.64885254	-0.51759587	-0.18347358	-0.67909820	-0.07263984	-0.43966484
1041	10.40000000	-0.93040901	-0.13723558	0.03902492	-0.55624417	0.13419767	-0.72141657	-0.16183501	-0.77866844	-0.17839005	-0.74639494	-0.35617239	0.13121399	-0.67652137	0.42152950	0.10557953	-0.72143942	0.11012454	0.36271327	-0.64572581	-0.53414429	-0.14810392	-0.68098417	-0.07590462	-0.43772158
1042	10.41000000	-0.93087987	-0.13268346	0.03630787	-0.55415852	0.13888212	-0.72149187	-0.14365884	-0.79112334	-0.17957330	-0.75932699	-0.34338079	0.12697278	-0.67266162	0.42601768	0.11143528	-0.72417886	0.11612798	0.36909006	-0.62623978	-0.55660946	-0.10802047	-0.68131537	-0.07028834	-0.43801683
1043	10.42000000	-0.93297313	-0.13098000	0.02995745	-0.55716253	0.14445681	-0.72010702	-0.13097815	-0.78800580	-0.17583537	-0.76575246	-0.32747549	0.12569043	-0.67347606	0.43025733	0.10389914	-0.71750220	0.11929493	0.37095457	-0.61780083	-0.57713723	-0.07512525	-0.68308012	-0.07835459	-0.43763500
1044	10.43000000	-0.93279225	-0.12852117	0.02738145	-0.55816621	0.14489371	-0.72401822	-0.11453561	-0.78843508	-0.18551358	-0.76933526	-0.31928185	0.11351952	-0.67798933	0.43226306	0.09923479	-0.71822299	0.13710742	0.37318730	-0.59930002	-0.59911783	-0.04260532	-0.68097660	-0.06990111	-0.43516525
1045	10.44000000	-0.93335009	-0.12446248	0.02150274	-0.55025785	0.15108479	-0.71755325	-0.10646318	-0.78823168	-0.19170626	-0.76863290	-0.30385162	0.10947918	-0.67466337	0.43771148	0.08770682	-0.71167563	0.15015038	0.37752572	-0.57879035	-0.61493538	-0.00824553	-0.68102737	-0.07906174	-0.43367440
1046	10.45000000	-0.93517602	-0.12519443	0.02777860	-0.55754606	0.15304690	-0.71915774	-0.09624985	-0.78569642	-0.19891503	-0.78182156	-0.28824365	0.10886269	-0.66683328	0.45066258	0.08030565	-0.71038086	0.16487911	0.37668394	-0.56900488	-0.62365748	-0.00515011	-0.68346181	-0.07620732	-0.43766962
1047	10.46000000	-0.93292094	-0.12880286	0.02081512	-0.55897778	0.15471160	-0.70863205	-0.09254291	-0.78186973	-0.20764057	-0.78342799	-0.27990191	0.10534892	-0.66649592	0.45540493	0.07188625	-0.71106727	0.17096757	0.37276784	-0.56075903	-0.62143174	-0.02274579	-0.68799474	-0.07912885	-0.43307049
1048	10.47000000	-0.93532722	-0.12449552	0.02120650	-0.55651171	0.15540152	-0.71797080	-0.08869962	-0.78173858	-0.21489587	-0.78824809	-0.26509518	0.09593731	-0.65323353	0.46809676	0.07590349	-0.71256462	0.17733984	0.37973484	-0.55731757	-0.62283046	-0.03832969	-0.69219402	-0.08351428	-0.43042588
1049	10.48000000	-0.93288877	-0.12737439	0.02180354	-0.55269984	0.16374006	-0.71353165	-0.09051428	-0.77755236	-0.23372029	-0.79341982	-0.25328534	0.09598689	-0.64962412	0.46777822	0.07593980	-0.70435626	0.18175460	0.38130691	-0.56178313	-0.61454299	-0.04439175	-0.69431504	-0.08294202	-0.42466895
